# xmcd
#
# Track frame offsets:
#	150
#	15619
#	45195
#	58051
#	72336
#	97893
#	119817
#	139452
#	160705
#	184208
#	209594
#	238653
#	268602
#	291901
#	329490
#
# Disc length: 4715 seconds
#
# Revision: 0
# Processed by: cddbd v1.5.2PL0 Copyright (c) Steve Scherf et al.
# Submitted via: EZCDAudioConverter 2.0.5.1
#
DISCID=e712690f
DTITLE=? - All you need is salsa cd2
DYEAR=1900
DGENRE=
TTITLE0=Joe Cuba - Do you feel it 
TTITLE1=Eddie Palmieri - Cafe
TTITLE2=Louie Ramirez - Chin chon chow
TTITLE3=Tito Puente - Ran kan kan
TTITLE4=Celia Cruz and Johnny Pacheco - Toro mata
TTITLE5=Tipica 73 - Chanchullo
TTITLE6=Hector Lavoe - El todopoderoso
TTITLE7=Cheo Feliciano - Amada mia
TTITLE8=Pete "Conde" Rodriguez - Catalina la o 
TTITLE9=Ismael Pivera - El nazareno
TTITLE10=Orquestra Harlow - La cartera
TTITLE11=Willie Colon and Ruben Blades - Plastico
TTITLE12=Lebron Brothers - Diez lagrimas
TTITLE13=Johnny Pachero - El faisan
TTITLE14=Fania All Stars - Viva tirado
EXTD=
EXTT0=
EXTT1=
EXTT2=
EXTT3=
EXTT4=
EXTT5=
EXTT6=
EXTT7=
EXTT8=
EXTT9=
EXTT10=
EXTT11=
EXTT12=
EXTT13=
EXTT14=
PLAYORDER=
